<svg xmlns="http://www.w3.org/2000/svg" width="32.708" height="32.708" viewBox="0 0 32.708 32.708"><defs><style>.a{fill:#563d7c;}.b{fill:#fff;}</style></defs><path class="a" d="M32.707,27.256a5.467,5.467,0,0,1-5.451,5.451H5.451A5.467,5.467,0,0,1,0,27.256V5.451A5.467,5.467,0,0,1,5.451,0h21.8a5.467,5.467,0,0,1,5.451,5.451Z"/><path class="b" d="M166.3,133h9.272a6.623,6.623,0,0,1,4.115,1.176,4.182,4.182,0,0,1,1.55,3.554,4.251,4.251,0,0,1-.705,2.469,4.544,4.544,0,0,1-2.02,1.593v.053a4.183,4.183,0,0,1,2.672,1.667,5.538,5.538,0,0,1,.909,3.249,5.437,5.437,0,0,1-.4,2.1,4.233,4.233,0,0,1-1.256,1.683,6.4,6.4,0,0,1-2.191,1.122,10.745,10.745,0,0,1-3.18.417H166.3Zm3.34,7.99h5.451a2.962,2.962,0,0,0,2-.684,2.448,2.448,0,0,0,.8-1.967,2.485,2.485,0,0,0-.721-2.031,3.239,3.239,0,0,0-2.084-.588H169.64Zm0,8.364h5.906a3.3,3.3,0,0,0,2.362-.791,2.913,2.913,0,0,0,.844-2.234,2.781,2.781,0,0,0-.844-2.181,3.376,3.376,0,0,0-2.362-.759H169.64Z" transform="translate(-157.412 -125.892)"/></svg>