<svg xmlns="http://www.w3.org/2000/svg" width="33.616" height="32.708" viewBox="0 0 33.616 32.708"><defs><style>.a{fill:#0868ac;}.b{fill:#131b28;}</style></defs><path class="a" d="M17.114,5.031c-1.922,2.814-1.683,6.474-.218,9.46L17,14.7l.073.135c.013.026.029.052.043.078.025.047.051.093.073.139l.14.245.08.135.163.259.073.109c.073.116.155.232.236.346l.007.009a.527.527,0,0,1,.036.055c.07.1.146.2.218.291l.081.1.2.248.076.092q.135.163.277.322l.006.006.011.012q.137.154.281.3l.09.092.225.224L19.48,18q.151.145.307.285l.058.051.279.24.116.094.233.182.124.1.356.26.026.019c.084.058.168.115.254.171l.11.075.4.247.11.063.3.17c.055.03.11.058.165.087l.213.109.049.024.087.043.338.159.072.036q.2.087.394.167l.1.039.372.14.047.017q.206.073.415.138l.1.031a4.351,4.351,0,0,0,.428.124c9.3,1.731,12-5.686,12-5.686-2.268,3.009-6.293,3.8-10.107,2.919-.144-.036-.285-.079-.426-.122l-.106-.036q-.206-.064-.41-.136l-.056-.021q-.182-.065-.361-.136l-.1-.041q-.2-.079-.39-.165l-.078-.035-.329-.156-.095-.047q-.128-.064-.255-.132l-.17-.091q-.154-.084-.3-.174l-.1-.058c-.134-.08-.266-.164-.4-.247-.036-.024-.071-.049-.107-.073l-.283-.191-.091-.065-.267-.2-.119-.091-.241-.192-.108-.087-.3-.255a.336.336,0,0,0-.036-.028c-.107-.1-.212-.194-.316-.293l-.089-.087-.227-.226-.089-.091q-.142-.147-.278-.3l-.014-.015q-.144-.161-.282-.327l-.074-.09-.2-.256-.075-.095-.235-.318A10.14,10.14,0,0,1,18.613,3.093m4.469-.432a6.915,6.915,0,0,0-.23,6.919,9.049,9.049,0,0,0,.615,1.045,4.931,4.931,0,0,0,.716.91c.1.109.2.218.312.33l.082.083q.156.155.319.3l.013.012q.183.163.375.317l.084.067q.191.15.389.29l.011.008c.058.041.118.08.178.119.028.019.055.039.084.057q.142.093.289.18l.041.024.255.146c.03.017.06.032.091.048l.182.094.027.013c.123.062.246.12.372.176l.082.035q.151.065.306.126l.131.049q.139.052.28.1l.127.041a3.006,3.006,0,0,0,.4.119c7.177,1.211,8.835-4.417,8.835-4.417a6.751,6.751,0,0,1-7.473,2.42q-.2-.054-.406-.12c-.041-.013-.082-.026-.122-.036q-.143-.047-.284-.1l-.128-.049c-.1-.036-.2-.082-.306-.126l-.083-.036q-.19-.083-.375-.177c-.063-.032-.126-.065-.188-.1l-.108-.057q-.12-.066-.238-.136l-.057-.036q-.145-.087-.287-.179c-.029-.019-.057-.036-.087-.059l-.186-.126q-.2-.14-.388-.289l-.087-.07a8.815,8.815,0,0,1-2.931-4.255,6.7,6.7,0,0,1,.509-5.3M28.1.889A4.317,4.317,0,0,0,27.772,5a5.726,5.726,0,0,0,3.262,3.1c.059.023.118.043.182.063l.079.025a2.253,2.253,0,0,0,.255.075c3.963.78,5.038-2.071,5.324-2.491-.942,1.381-2.524,1.712-4.466,1.232-.153-.038-.322-.095-.473-.148a5.684,5.684,0,0,1-.558-.236,5.753,5.753,0,0,1-.978-.608c-1.741-1.343-2.821-3.9-1.687-5.989" transform="translate(-9.746 -0.028)"/><g transform="translate(0 23.237)"><path class="b" d="M24.375,66.707l-.269.952.269-.952Zm1.381,2.066-.3,0Zm-.073,1.421-1.773.007Zm.371-1.419-.3,0Zm-.212,1.3.309-1.178Zm6.524-5.424-.575,2.7Zm-1.479,0-.437,2.021Z" transform="translate(-14.774 -63.007)"/><path class="b" d="M36.78,64.332H35.55a.161.161,0,0,0-.151.122l-.873,4.041a.161.161,0,0,1-.15.121H33.5c-.862,0-.762-.6-.582-1.412l.005-.025.1-.557.045-.229.4-1.94a.1.1,0,0,0-.1-.122H32.113a.16.16,0,0,0-.15.122l-.569,2.7c-.313,1.428-.23,2.789,1.47,2.832h2.717a.161.161,0,0,0,.15-.122l1.151-5.409a.1.1,0,0,0-.1-.122Zm4.907,4.3a.1.1,0,0,1,.1.122l-.119.584m-.119.584.119-.584Zm-.15.123-2.267.011Z" transform="translate(-19.288 -62.811)"/><path class="b" d="M49.742,73.262c0-.064.072-.174.14-.174l-.154,0C49.656,73.782,49.742,73.262,49.742,73.262Zm.846,2.175h-.024Zm2.444-1.423a.1.1,0,0,1,.1.122l-.139.679m-1.822.625h-.005Zm-.3,0h-.017Zm-.092,0h-.029Zm-.09,0h-.025Zm.168,0h0Z" transform="translate(-30.633 -68.195)"/><path class="b" d="M20.863,70.03h0Zm1.578-.009-1.574.009Zm.146-.126.1-.489-.1.489Zm-2.145.134h.007Zm-.18,0h0Zm.094,0h0Zm-18-2.161.191-.847-.218.968-.025.122.053-.243Zm2.287-3.575H3.294a.164.164,0,0,0-.152.121l-.256,1.128a.095.095,0,0,0,.1.121H4.345a.162.162,0,0,0,.151-.121l.247-1.131a.1.1,0,0,0-.1-.121Zm-.294,1.88-.4,1.833ZM.427,72.247l1.114.009c-.329,0-.872-.006-1.115-.009Z" transform="translate(-0.331 -62.786)"/><path class="b" d="M2.584,67.37l-.191.847ZM4.1,67.249H2.739a.164.164,0,0,0-.152.121l-.382,1.694-.053.243-.364,1.729q-.027.121-.065.239s-.255.757-.682.748l-.424-.008a.164.164,0,0,0-.153.119L.182,73.322a.095.095,0,0,0,.095.122l1.115.009c1.068,0,1.631-.592,1.993-2.295L4.2,67.374a.1.1,0,0,0-.1-.121Zm19.344,3.907a.1.1,0,0,1-.1-.122l1.024-4.8m.5,4.8.415-2.048Z" transform="translate(-0.178 -63.983)"/><path class="b" d="M60.365,71.609a.523.523,0,0,1,.011-.182l.486-2.278-.512,2.4a.1.1,0,0,0,.1.122h.124C60.5,71.669,60.373,71.642,60.365,71.609Zm1.426.033a.662.662,0,0,1-.192.027h.124a.16.16,0,0,0,.149-.122l.025-.122a.448.448,0,0,1-.109.216Zm.287-1.119.183-.9Zm4.042-3.452.056.233a.094.094,0,0,1-.1.121" transform="translate(-37.182 -64.496)"/><path class="b" d="M62.72,70.787l.182-.9Zm4.168-4.6.056.239Zm-3.8,2.792.05-.242.2-.915L63.11,68.86l-.024.12Zm-.871-2.949-.043.2-.486,2.278.512-2.4.016-.079Z" transform="translate(-38.005 -63.857)"/><path class="b" d="M36.5,63.191l-.056-.233-.084-.364c-.111-.429-.435-.678-1.14-.678l-3.246,0a.16.16,0,0,0-.15.122l-.05.238-.073.359-1,4.677a.521.521,0,0,0-.011.182c.008.036.139.061.207.061h1.026a.652.652,0,0,0,.192-.027c.037-.015.092-.146.109-.216l.389-1.926.417-1.952a.161.161,0,0,1,.15-.121h3.229a.094.094,0,0,0,.1-.121Zm4.156-2.108H39.375a.266.266,0,0,0-.194.1L36.9,64.535c-.039.056-.083.048-.1-.018l-.168-.738a.164.164,0,0,0-.152-.121H35.008a.089.089,0,0,0-.09.119l.655,2.306a.551.551,0,0,1,0,.24l-.291,1.116a.091.091,0,0,0,.094.12h1.455a.169.169,0,0,0,.155-.12l.291-1.116a.742.742,0,0,1,.106-.22L41.1,61.18c.041-.055.019-.1-.049-.1l-.389,0ZM28.985,63.971a.15.15,0,0,1-.146.127H26.977a.08.08,0,0,1-.087-.1v-.01l.008-.032a1.17,1.17,0,0,1,1.221-.783c.767,0,.916.375.864.8Zm-.547-2.15c-2.391,0-2.957,1.451-3.275,2.916-.318,1.493-.29,2.889,2.183,2.889h.694l1.574-.009a.16.16,0,0,0,.148-.122L30,66.325a.1.1,0,0,0-.1-.122H27.679c-.884,0-1.147-.235-1.05-.926h3.555a.143.143,0,0,0,.132-.092.15.15,0,0,0,.009-.031c.528-1.99.376-3.332-1.885-3.332Zm-11.3,2.142-.033.119-.269.952-.269.951a.175.175,0,0,1-.158.119H14.989c-1.078,0-1.34-.843-1.078-2.086.262-1.272.777-2.062,1.838-2.142,1.45-.109,1.739.91,1.39,2.087Zm.974,2.069a15.99,15.99,0,0,0,.822-2.566,2.6,2.6,0,0,0-2.855-3.082c-2.419,0-3.469,1.741-3.869,3.639s.124,3.579,2.529,3.566l3.67-.013a.171.171,0,0,0,.155-.121l.309-1.178a.091.091,0,0,0-.093-.121l-.592,0a.076.076,0,0,1-.084-.087.135.135,0,0,1,.007-.028Z" transform="translate(-7.504 -60.384)"/><path class="b" d="M58.571,72.1a.082.082,0,1,1-.082-.082A.081.081,0,0,1,58.571,72.1Z" transform="translate(-35.989 -67.537)"/></g></svg>