<svg xmlns="http://www.w3.org/2000/svg" width="34.454" height="32.708" viewBox="0 0 34.454 32.708"><defs><style>.a{fill:#764abc;}</style></defs><path class="a" d="M35.023,55.629a2.463,2.463,0,0,0-.263-4.911h-.088A2.453,2.453,0,0,0,32.3,53.261a2.518,2.518,0,0,0,.7,1.622,15.683,15.683,0,0,1-7.19,6.883,11.857,11.857,0,0,1-7.147,1.359A6.1,6.1,0,0,1,14.2,60.539a6.44,6.44,0,0,1-.351-6.8,10.32,10.32,0,0,1,2.981-3.507c-.175-.57-.438-1.535-.57-2.236-6.357,4.6-5.7,10.829-3.771,13.767,1.447,2.192,4.384,3.551,7.629,3.551a10.778,10.778,0,0,0,2.631-.307A16.825,16.825,0,0,0,35.023,55.629Z" transform="translate(-11.15 -32.786)"/><path class="a" d="M58.658,43.566A17.805,17.805,0,0,0,44.8,37.515h-.7A2.409,2.409,0,0,0,41.954,36.2h-.088a2.456,2.456,0,0,0,.088,4.911h.088A2.47,2.47,0,0,0,44.19,39.62h.789a16.711,16.711,0,0,1,9.339,2.85,11.745,11.745,0,0,1,4.647,5.612,6.077,6.077,0,0,1-.088,5.174,6.437,6.437,0,0,1-6.007,3.6,11.213,11.213,0,0,1-4.3-.921c-.482.438-1.359,1.14-1.973,1.578a13.534,13.534,0,0,0,5.656,1.359,9.518,9.518,0,0,0,8.506-4.647C62.034,51.677,61.946,47.292,58.658,43.566Z" transform="translate(-27.069 -26.16)"/><path class="a" d="M29.282,36.888a2.463,2.463,0,0,0,2.455,2.368h.088a2.456,2.456,0,0,0-.088-4.911h-.088a.746.746,0,0,0-.307.044,16.065,16.065,0,0,1-2.28-9.733,11.762,11.762,0,0,1,2.587-6.8A7.605,7.605,0,0,1,37.042,15.4c4.647-.088,6.62,5.7,6.752,8.023.57.132,1.535.438,2.192.658-.526-7.1-4.911-10.786-9.12-10.786-3.946,0-7.585,2.85-9.032,7.059a17.936,17.936,0,0,0,1.754,15.258,1.97,1.97,0,0,0-.307,1.271Z" transform="translate(-19.965 -13.3)"/></svg>