<svg xmlns="http://www.w3.org/2000/svg" width="32.738" height="32.707" viewBox="0 0 32.738 32.707"><defs><style>.a{fill:#f05138;}.b{fill:#fff;}</style></defs><path class="a" d="M-219.062,353.058v-.989a17.034,17.034,0,0,0-.185-2.164,6.9,6.9,0,0,0-.68-2.04,6.413,6.413,0,0,0-1.267-1.731,7.542,7.542,0,0,0-1.731-1.268,6.9,6.9,0,0,0-2.04-.68A12.521,12.521,0,0,0-227.13,344h-16.6a2.826,2.826,0,0,0-.526.031,14.137,14.137,0,0,0-1.608.155,8.811,8.811,0,0,0-1.546.433c-.155.062-.34.155-.495.216a7.956,7.956,0,0,0-1.36.9c-.124.124-.278.247-.4.371a7.543,7.543,0,0,0-1.267,1.731,6.9,6.9,0,0,0-.68,2.04,16.556,16.556,0,0,0-.186,2.164v16.6a17.028,17.028,0,0,0,.186,2.164,6.9,6.9,0,0,0,.68,2.04,6.414,6.414,0,0,0,1.267,1.731,7.543,7.543,0,0,0,1.731,1.267,6.9,6.9,0,0,0,2.04.68,12.516,12.516,0,0,0,2.164.185h16.6a17.029,17.029,0,0,0,2.164-.185,6.9,6.9,0,0,0,2.04-.68,6.413,6.413,0,0,0,1.731-1.267,7.543,7.543,0,0,0,1.267-1.731,6.9,6.9,0,0,0,.68-2.04,12.517,12.517,0,0,0,.185-2.164V353.058Z" transform="translate(251.8 -344)"/><path class="b" d="M-218.778,374.581l.093-.371c1.36-5.41-1.948-11.84-7.574-15.21,2.473,3.339,3.555,7.389,2.6,10.913-.093.309-.186.618-.309.927a2.343,2.343,0,0,0-.495-.278,71.565,71.565,0,0,1-11.655-9.553,73.192,73.192,0,0,0,7.079,8.9,78.335,78.335,0,0,1-10.078-7.6,16.2,16.2,0,0,0,1.36,1.886,60.905,60.905,0,0,0,10.325,10.789c-2.937,1.793-7.079,1.948-11.191,0a16.748,16.748,0,0,1-2.875-1.7,17.216,17.216,0,0,0,7.7,6.616c3.9,1.669,7.79,1.577,10.665.031h0a.03.03,0,0,0,.031-.031c.124-.062.247-.155.371-.216,1.391-.711,4.112-1.422,5.6,1.422.433.649,1.206-3.06-1.638-6.523Z" transform="translate(244.684 -354.363)"/></svg>