<svg xmlns="http://www.w3.org/2000/svg" width="38.817" height="21.805" viewBox="0 0 38.817 21.805"><defs><style>.a{fill:#00de7a;}</style></defs><path class="a" d="M136.558,13.6l3.23-5.6a.683.683,0,0,0-1.165-.683L135.352,13a20.3,20.3,0,0,0-16.619,0l-3.272-5.669a.683.683,0,0,0-1.165.683l3.23,5.583a19.073,19.073,0,0,0-9.89,15.272h38.817a19.079,19.079,0,0,0-9.9-15.272ZM118.1,23.338a1.617,1.617,0,1,1,1.56-1.2A1.62,1.62,0,0,1,118.1,23.338Zm17.87,0a1.617,1.617,0,1,1,1.614-1.62A1.617,1.617,0,0,1,135.973,23.338Z" transform="translate(-107.637 -7.064)"/></svg>