<svg xmlns="http://www.w3.org/2000/svg" width="33.882" height="36.366" viewBox="0 0 33.882 36.366"><defs><style>.a{fill:#61dafb;}.b{fill:none;stroke:#61dafb;}</style></defs><g transform="translate(0.5 0.683)"><circle class="a" cx="2.759" cy="2.759" r="2.759" transform="translate(13.682 14.741)"/><g transform="translate(0 0)"><ellipse class="b" cx="16.441" cy="5.652" rx="16.441" ry="5.652" transform="translate(0 11.848)"/><path class="b" d="M16.582,0c9.127-.081,16.5,2.707,16.47,6.228S25.6,12.67,16.47,12.751-.031,10.044,0,6.523,7.455.083,16.582,0Z" transform="translate(13.7 0) rotate(60)"/><path class="b" d="M16.47,0C25.6.083,33.021,3,33.052,6.523s-7.343,6.309-16.47,6.228S.031,9.75,0,6.229,7.343-.079,16.47,0Z" transform="translate(30.226 6.376) rotate(120)"/></g></g></svg>