<svg xmlns="http://www.w3.org/2000/svg" width="62.016" height="21.805" viewBox="0 0 62.016 21.805"><defs><style>.a{fill:#c00;}</style></defs><path class="a" d="M345.757,77.055V79.89h5.122a2.929,2.929,0,0,0,2.914-2.914v-1.1a2.893,2.893,0,0,0-2.914-2.914h-2.553V71.651h5.06V68.8h-4.856a2.981,2.981,0,0,0-2.929,2.961v.987a2.928,2.928,0,0,0,2.929,2.914c3.524.016-.846,0,2.412,0V77.04" transform="translate(-291.777 -58.085)"/><path class="a" d="M136.063,75.944s2.741-.235,2.741-3.775a3.742,3.742,0,0,0-3.321-3.869H129.5V79.469h3.008V76.774l2.6,2.694h4.449ZM134.9,73.657h-2.4V71.1h2.412a1.259,1.259,0,0,1,.674,1.269A1.293,1.293,0,0,1,134.9,73.657Z" transform="translate(-109.528 -57.664)"/><path class="a" d="M204.168,68.8h-3.055a2.934,2.934,0,0,0-2.914,2.914V79.89h3.055V77.932h2.867V79.89h2.961V71.714A2.89,2.89,0,0,0,204.168,68.8Zm-.047,5.968h-2.882v-2.71s0-.611.956-.611h1.05c.846,0,.862.611.862.611v2.71Z" transform="translate(-167.466 -58.085)"/><rect class="a" width="3.18" height="11.09" transform="translate(41.01 10.715)"/><path class="a" d="M295.564,77.024V68.8H292.4V79.89h7.441V77.024Z" transform="translate(-246.91 -58.085)"/><path class="a" d="M9,30.679H21.375S19.01,19.886,26.842,15.516c1.707-.83,7.143-3.932,16.04,2.647.282-.235.548-.423.548-.423s-8.146-8.13-17.215-7.221c-4.558.407-10.166,4.558-13.456,10.041A27.1,27.1,0,0,0,9,30.679Z" transform="translate(-7.903 -8.874)"/><path class="a" d="M9,30.679H21.375S19.01,19.886,26.842,15.516c1.707-.83,7.143-3.932,16.04,2.647.282-.235.548-.423.548-.423s-8.146-8.13-17.215-7.221c-4.558.407-10.166,4.558-13.456,10.041A27.1,27.1,0,0,0,9,30.679Z" transform="translate(-7.903 -8.874)"/><path class="a" d="M9,30.679H21.375S19.01,19.886,26.842,15.516c1.707-.83,7.143-3.932,16.04,2.647.282-.235.548-.423.548-.423s-8.146-8.13-17.215-7.221c-4.574.407-10.182,4.558-13.471,10.041A26.874,26.874,0,0,0,9,30.679Z" transform="translate(-7.903 -8.874)"/><path class="a" d="M165.419,7.9l.063-1.05a7.66,7.66,0,0,0-1.519-.548L163.9,7.334C164.417,7.506,164.918,7.694,165.419,7.9Z" transform="translate(-138.539 -5.376)"/><path class="a" d="M163.763,37.7l-.063.987a8.733,8.733,0,0,1,1.551.188l.063-.971A11.09,11.09,0,0,0,163.763,37.7Z" transform="translate(-138.371 -31.857)"/><path class="a" d="M118.16,1.356h.157L118,.4a12.5,12.5,0,0,0-1.5.094l.3.924A13.224,13.224,0,0,1,118.16,1.356Z" transform="translate(-98.564 -0.4)"/><path class="a" d="M131.9,40.6l.36,1.081a9.909,9.909,0,0,1,1.363-.548l-.345-1.034A11.363,11.363,0,0,0,131.9,40.6Z" transform="translate(-111.552 -33.881)"/><path class="a" d="M76.127,11.181l-.7-1.081c-.392.2-.8.423-1.222.674l.721,1.1C75.328,11.619,75.719,11.384,76.127,11.181Z" transform="translate(-62.89 -8.581)"/><path class="a" d="M107,56.35l.752,1.128a8.7,8.7,0,0,1,.924-1.112l-.7-1.065A8.666,8.666,0,0,0,107,56.35Z" transform="translate(-90.552 -46.7)"/><path class="a" d="M92.5,84.923l1.269,1a12.507,12.507,0,0,1,.329-1.833L92.97,83.2A14.9,14.9,0,0,0,92.5,84.923Z" transform="translate(-78.324 -70.23)"/><path class="a" d="M36.471,41.471,35.359,40.5c-.407.392-.8.783-1.159,1.175l1.206,1.034A15.861,15.861,0,0,1,36.471,41.471Z" transform="translate(-29.156 -34.219)"/><path class="a" d="M4.585,87.858l-1.8-.658c-.3.674-.627,1.457-.783,1.88l1.8.658C4.005,89.205,4.334,88.437,4.585,87.858Z" transform="translate(-2 -73.603)"/><path class="a" d="M91,119.6a15.916,15.916,0,0,0,.188,1.974l1.88.674a20.705,20.705,0,0,1-.376-2.036Z" transform="translate(-77.059 -100.928)"/></svg>